<?xml version="1.0" standalone="no"?>
<!DOCTYPE svg PUBLIC "-//W3C//DTD SVG 20010904//EN"
 "http://www.w3.org/TR/2001/REC-SVG-20010904/DTD/svg10.dtd">
<svg version="1.0" xmlns="http://www.w3.org/2000/svg"
 width="500.000000pt" height="500.000000pt" viewBox="0 0 500.000000 500.000000"
 preserveAspectRatio="xMidYMid meet">
<metadata>
Created by potrace 1.14, written by Peter Selinger 2001-2017
</metadata>
<g transform="translate(0.000000,500.000000) scale(0.100000,-0.100000)"
fill="#000000" stroke="none">
<path d="M2409 4826 c-2 -2 -31 -6 -64 -9 -33 -3 -71 -8 -85 -11 -14 -3 -41
-9 -60 -12 -75 -14 -98 -21 -195 -58 -201 -79 -350 -176 -500 -330 -130 -132
-196 -226 -268 -377 -131 -277 -167 -554 -112 -875 5 -28 2 -33 -27 -44 -217
-81 -388 -189 -521 -326 -26 -27 -58 -60 -71 -74 -79 -81 -184 -255 -242 -398
-24 -59 -45 -118 -48 -132 -3 -14 -15 -70 -27 -125 -19 -82 -23 -130 -23 -270
1 -150 4 -184 28 -290 67 -288 205 -531 413 -725 69 -64 122 -110 128 -110 1
0 32 -20 69 -44 152 -103 401 -195 571 -212 100 -11 278 -11 370 -1 75 8 265
55 328 82 90 38 231 112 277 147 14 10 50 38 81 63 l56 44 28 -26 c39 -37 103
-84 168 -126 69 -44 237 -130 237 -121 0 4 6 2 13 -3 33 -27 227 -75 355 -90
131 -14 342 -3 432 22 8 2 31 7 50 10 19 3 78 21 130 40 341 121 606 350 778
673 139 263 191 596 137 890 -15 84 -46 204 -55 217 -3 6 -15 33 -24 60 -83
229 -287 485 -512 638 -91 62 -253 142 -345 170 -14 5 -14 14 1 104 19 105 24
327 10 403 -4 25 -10 61 -13 80 -21 130 -94 327 -167 449 -25 40 -50 81 -55
91 -43 73 -241 275 -335 342 -231 163 -501 254 -781 264 -69 2 -128 2 -130 0z"/>
</g>
</svg>
